<svg xmlns="http://www.w3.org/2000/svg" width="1304" height="1190" viewBox="0 0 1304 1190"><rect width="1304" height="1190" fill="#f3ead8"/><rect x="215" y="878" width="544" height="192" fill="#d1413a" opacity="0.1"/><rect x="215" y="110" width="544" height="192" fill="#3a78d1" opacity="0.1"/><rect x="215" y="446" width="544" height="288" fill="#5e7a3a" opacity="0.12"/><rect x="207" y="110" width="16" height="960" fill="#2c3444" opacity="1" rx="2"/><rect x="751" y="110" width="16" height="960" fill="#2c3444" opacity="1" rx="2"/><rect x="215" y="1062" width="544" height="16" fill="#2c3444" opacity="1" rx="2"/><rect x="215" y="102" width="544" height="16" fill="#2c3444" opacity="1" rx="2"/><rect x="375" y="1030" width="224" height="16" fill="#2c3444" opacity="1" rx="2"/><rect x="367" y="1000" width="16" height="38" fill="#2c3444" opacity="1" rx="2"/><rect x="367" y="942" width="16" height="38" fill="#2c3444" opacity="1" rx="2"/><rect x="591" y="942" width="16" height="96" fill="#2c3444" opacity="1" rx="2"/><rect x="375" y="134" width="224" height="16" fill="#2c3444" opacity="1" rx="2"/><rect x="367" y="142" width="16" height="96" fill="#2c3444" opacity="1" rx="2"/><rect x="591" y="200" width="16" height="38" fill="#2c3444" opacity="1" rx="2"/><rect x="591" y="142" width="16" height="38" fill="#2c3444" opacity="1" rx="2"/><rect x="447" y="550" width="80" height="80" fill="#6b5b45" opacity="0.85" rx="2"/><rect x="375" y="654" width="16" height="128" fill="#2c3444" opacity="1" rx="2"/><rect x="583" y="398" width="16" height="128" fill="#2c3444" opacity="1" rx="2"/><rect x="583" y="678" width="16" height="80" fill="#2c3444" opacity="1" rx="2"/><rect x="375" y="422" width="16" height="80" fill="#2c3444" opacity="1" rx="2"/><rect x="263" y="822" width="96" height="16" fill="#2c3444" opacity="1" rx="2"/><rect x="615" y="342" width="96" height="16" fill="#2c3444" opacity="1" rx="2"/><circle cx="343" cy="654" r="8" fill="#2c3444"/><circle cx="631" cy="654" r="8" fill="#2c3444"/><circle cx="343" cy="526" r="8" fill="#2c3444"/><circle cx="631" cy="526" r="8" fill="#2c3444"/><circle cx="487" cy="798" r="8" fill="#2c3444"/><circle cx="487" cy="382" r="8" fill="#2c3444"/><rect x="415.8" y="838.8" width="14.4" height="14.4" fill="#8a6a3c" opacity="1" rx="2"/><rect x="543.8" y="326.8" width="14.4" height="14.4" fill="#8a6a3c" opacity="1" rx="2"/><rect x="551.8" y="758.8" width="14.4" height="14.4" fill="#8a6a3c" opacity="1" rx="2"/><rect x="407.8" y="406.8" width="14.4" height="14.4" fill="#8a6a3c" opacity="1" rx="2"/><circle cx="487" cy="974" r="12.8" fill="#d1413a" stroke="#3a3020" stroke-width="2"/><line x1="487" y1="974" x2="487" y2="948" stroke="#3a3020" stroke-width="3"/><path d="M 487 948 h 18 l -5 6 5 6 h -18 z" fill="#d1413a" stroke="#3a3020" stroke-width="1"/><circle cx="439" cy="1022" r="4.4" fill="#d1413a"/><circle cx="487" cy="1030" r="4.4" fill="#d1413a"/><circle cx="535" cy="1022" r="4.4" fill="#d1413a"/><circle cx="463" cy="998" r="4.4" fill="#d1413a"/><circle cx="511" cy="998" r="4.4" fill="#d1413a"/><path d="M 415 1030 l 6 14 h -12 z" fill="#d1413a" opacity="0.85"/><path d="M 559 1030 l 6 14 h -12 z" fill="#d1413a" opacity="0.85"/><circle cx="487" cy="206" r="12.8" fill="#3a78d1" stroke="#3a3020" stroke-width="2"/><line x1="487" y1="206" x2="487" y2="180" stroke="#3a3020" stroke-width="3"/><path d="M 487 180 h 18 l -5 6 5 6 h -18 z" fill="#3a78d1" stroke="#3a3020" stroke-width="1"/><circle cx="535" cy="158" r="4.4" fill="#3a78d1"/><circle cx="487" cy="150" r="4.4" fill="#3a78d1"/><circle cx="439" cy="158" r="4.4" fill="#3a78d1"/><circle cx="511" cy="182" r="4.4" fill="#3a78d1"/><circle cx="463" cy="182" r="4.4" fill="#3a78d1"/><path d="M 415 134 l 6 14 h -12 z" fill="#3a78d1" opacity="0.85"/><path d="M 559 134 l 6 14 h -12 z" fill="#3a78d1" opacity="0.85"/><circle cx="487" cy="878" r="8.8" fill="none" stroke="#ffd24a" stroke-width="2"/><circle cx="487" cy="878" r="4" fill="#ffd24a"/><circle cx="487" cy="302" r="8.8" fill="none" stroke="#ffd24a" stroke-width="2"/><circle cx="487" cy="302" r="4" fill="#ffd24a"/><circle cx="295" cy="590" r="8.8" fill="none" stroke="#ffd24a" stroke-width="2"/><circle cx="295" cy="590" r="4" fill="#ffd24a"/><circle cx="679" cy="590" r="8.8" fill="none" stroke="#ffd24a" stroke-width="2"/><circle cx="679" cy="590" r="4" fill="#ffd24a"/><text x="487" y="44.39999999999998" font-size="26" fill="#3a3020" text-anchor="middle" font-weight="600" font-family="Georgia, serif">RAVENRIFT: THE FIELD</text><text x="487" y="73.20000000000005" font-size="14" fill="#6b5b45" text-anchor="middle" font-weight="600" font-family="Georgia, serif">68 x 120 yards, walled and open-air. North is up.</text><text x="487" y="169.2" font-size="17" fill="#3a78d1" text-anchor="middle" font-weight="600" font-family="Georgia, serif">AZURE KEEP</text><text x="487" y="1026.8" font-size="17" fill="#d1413a" text-anchor="middle" font-weight="600" font-family="Georgia, serif">CRIMSON KEEP</text><line x1="499.8" y1="206" x2="791" y2="226" stroke="#3a78d1" stroke-width="1.4" stroke-dasharray="4 3"/><text x="791" y="240.39999999999998" font-size="14" fill="#3a78d1" text-anchor="start" font-weight="600" font-family="Georgia, serif">flag stand + capture point</text><line x1="511" y1="182" x2="791" y2="174" stroke="#3a78d1" stroke-width="1.4" stroke-dasharray="4 3"/><text x="791" y="164.39999999999998" font-size="14" fill="#3a78d1" text-anchor="start" font-weight="600" font-family="Georgia, serif">spawn ring (wave respawn)</text><line x1="599" y1="190" x2="791" y2="126" stroke="#3a3020" stroke-width="1.4" stroke-dasharray="4 3"/><text x="791" y="116.39999999999998" font-size="14" fill="#3a3020" text-anchor="start" font-weight="600" font-family="Georgia, serif">postern gap (2.5yd)</text><line x1="375" y1="990" x2="183" y2="1030" stroke="#3a3020" stroke-width="1.4" stroke-dasharray="4 3"/><text x="183" y="1044.4" font-size="14" fill="#3a3020" text-anchor="end" font-weight="600" font-family="Georgia, serif">postern gap (2.5yd)</text><line x1="487" y1="302" x2="791" y2="318" stroke="#8a6a3c" stroke-width="1.4" stroke-dasharray="4 3"/><text x="791" y="332.4" font-size="14" fill="#8a6a3c" text-anchor="start" font-weight="600" font-family="Georgia, serif">flag-approach rune</text><line x1="679" y1="590" x2="791" y2="614" stroke="#8a6a3c" stroke-width="1.4" stroke-dasharray="4 3"/><text x="791" y="628.4" font-size="14" fill="#8a6a3c" text-anchor="start" font-weight="600" font-family="Georgia, serif">flank rune</text><line x1="295" y1="590" x2="183" y2="566" stroke="#8a6a3c" stroke-width="1.4" stroke-dasharray="4 3"/><text x="183" y="556.4" font-size="14" fill="#8a6a3c" text-anchor="end" font-weight="600" font-family="Georgia, serif">flank rune</text><line x1="527" y1="566" x2="791" y2="510" stroke="#6b5b45" stroke-width="1.4" stroke-dasharray="4 3"/><text x="791" y="500.4" font-size="14" fill="#6b5b45" text-anchor="start" font-weight="600" font-family="Georgia, serif">heart ruin (hollow)</text><line x1="383" y1="718" x2="183" y2="742" stroke="#3a3020" stroke-width="1.4" stroke-dasharray="4 3"/><text x="183" y="756.4" font-size="14" fill="#3a3020" text-anchor="end" font-weight="600" font-family="Georgia, serif">staggered lane walls</text><line x1="663" y1="350" x2="791" y2="382" stroke="#3a3020" stroke-width="1.4" stroke-dasharray="4 3"/><text x="791" y="396.4" font-size="14" fill="#3a3020" text-anchor="start" font-weight="600" font-family="Georgia, serif">wing baffle</text><line x1="415" y1="1038" x2="183" y2="1078" stroke="#d1413a" stroke-width="1.4" stroke-dasharray="4 3"/><text x="183" y="1092.4" font-size="14" fill="#d1413a" text-anchor="end" font-weight="600" font-family="Georgia, serif">keep banner poles</text><text x="487" y="1127.6" font-size="13.5" fill="#6b5b45" text-anchor="middle" font-weight="600" font-family="Georgia, serif">Crimson attacks north through the lanes or the west flank; Azure mirrors it exactly:</text><text x="487" y="1151.6" font-size="13.5" fill="#6b5b45" text-anchor="middle" font-weight="600" font-family="Georgia, serif">the whole map is point-symmetric, so neither side is favored.</text><rect x="988" y="104" width="280" height="392" fill="#fff" opacity="0.55" rx="10"/><text x="1002" y="128" font-size="18" font-weight="700" fill="#3a3020" font-family="Georgia, serif">Legend</text><rect x="1004" y="151" width="18" height="14" fill="#2c3444" rx="2"/><text x="1030" y="163" font-size="14.5" fill="#3a3020" font-family="Georgia, serif">wall (blocks movement + sight)</text><rect x="1004" y="181" width="18" height="14" fill="#6b5b45" rx="2"/><text x="1030" y="193" font-size="14.5" fill="#3a3020" font-family="Georgia, serif">heart ruin (solid block, hollow shell)</text><circle cx="1013" cy="218" r="7" fill="#2c3444"/><text x="1030" y="223" font-size="14.5" fill="#3a3020" font-family="Georgia, serif">pillar</text><rect x="1006" y="241" width="14" height="14" fill="#8a6a3c" rx="2"/><text x="1030" y="253" font-size="14.5" fill="#3a3020" font-family="Georgia, serif">crate stack</text><circle cx="1013" cy="278" r="8" fill="#d1413a" stroke="#3a3020" stroke-width="2"/><text x="1030" y="283" font-size="14.5" fill="#3a3020" font-family="Georgia, serif">flag stand (Crimson / Azure)</text><circle cx="1013" cy="308" r="4" fill="#3a78d1"/><text x="1030" y="313" font-size="14.5" fill="#3a3020" font-family="Georgia, serif">spawn point (5 per keep)</text><path d="M 1007 330 l 6 14 h -12 z" fill="#3a78d1" opacity="0.85"/><text x="1030" y="343" font-size="14.5" fill="#3a3020" font-family="Georgia, serif">keep banner pole</text><g><circle cx="1013" cy="368" r="8" fill="none" stroke="#ffd24a" stroke-width="2"/><circle cx="1013" cy="368" r="3.5" fill="#ffd24a"/></g><text x="1030" y="373" font-size="14.5" fill="#3a3020" font-family="Georgia, serif">speed rune (1.4x for 8s, 22s recharge)</text><rect x="1004" y="391" width="18" height="14" fill="#d1413a" opacity="0.2" rx="2"/><text x="1030" y="403" font-size="14.5" fill="#3a3020" font-family="Georgia, serif">keep grounds (garrison theme)</text><rect x="1004" y="421" width="18" height="14" fill="#5e7a3a" opacity="0.25" rx="2"/><text x="1030" y="433" font-size="14.5" fill="#3a3020" font-family="Georgia, serif">mid ruin belt (overgrown theme)</text><line x1="1004" y1="458" x2="1022" y2="458" stroke="#3a3020" stroke-width="1.4" stroke-dasharray="4 3"/><text x="1030" y="463" font-size="14.5" fill="#3a3020" font-family="Georgia, serif">annotation</text></svg>